<svg width="64" height="64" viewBox="0 0 64 64" fill="none" xmlns="http://www.w3.org/2000/svg">
<path d="M52.3 38.1992C54.1 38.1992 55.5 39.5992 55.5 41.3992C55.5 43.1992 54.1 44.5992 52.3 44.5992C50.5 44.5992 49.1 43.1992 49.1 41.3992C49.1 39.5992 50.5 38.1992 52.3 38.1992ZM52.3 42.3992C52.9 42.3992 53.3 41.9992 53.3 41.3992C53.3 40.7992 52.9 40.3992 52.3 40.3992C51.7 40.3992 51.3 40.7992 51.3 41.3992C51.3 41.8992 51.7 42.3992 52.3 42.3992Z" fill="white"/>
<path d="M15.6999 38.1992C17.4999 38.1992 18.8999 39.5992 18.8999 41.3992C18.8999 43.1992 17.4999 44.5992 15.6999 44.5992C13.8999 44.5992 12.4999 43.1992 12.4999 41.3992C12.4999 39.5992 13.8999 38.1992 15.6999 38.1992ZM15.6999 42.3992C16.2999 42.3992 16.6999 41.9992 16.6999 41.3992C16.6999 40.7992 16.2999 40.3992 15.6999 40.3992C15.0999 40.3992 14.6999 40.7992 14.6999 41.3992C14.6999 41.8992 15.0999 42.3992 15.6999 42.3992Z" fill="white"/>
<path d="M2.7 24.9008H3.3C4 20.7008 8.6 15.3008 15.3 15.3008H38C44 15.3008 49.2 24.4008 50.5 26.9008H56.3C60.6 26.9008 64 30.4008 64 34.6008V40.2008C64 41.4008 63 42.4008 61.8 42.4008H59.5C59 45.9008 55.9 48.6008 52.3 48.6008C48.7 48.6008 45.6 45.9008 45.1 42.4008H22.9C22.4 45.9008 19.3 48.6008 15.7 48.6008C12.1 48.6008 9 45.9008 8.5 42.4008H5.4C4.2 42.4008 3.2 41.4008 3.2 40.2008V35.0008H2.7C1.2 35.0008 0 33.8008 0 32.3008V27.6008C0 26.1008 1.2 24.9008 2.7 24.9008ZM52.3 46.4008C55.1 46.4008 57.4 44.1008 57.4 41.3008C57.4 38.5008 55.1 36.2008 52.3 36.2008C49.5 36.2008 47.2 38.5008 47.2 41.3008C47.2 44.2008 49.5 46.4008 52.3 46.4008ZM15.7 46.4008C18.5 46.4008 20.8 44.1008 20.8 41.3008C20.8 38.5008 18.5 36.2008 15.7 36.2008C12.9 36.2008 10.6 38.5008 10.6 41.3008C10.6 44.2008 12.9 46.4008 15.7 46.4008ZM5.4 40.3008H8.5C9 36.8008 12.1 34.1008 15.7 34.1008C19.3 34.1008 22.4 36.8008 22.9 40.3008H45.1C45.6 36.8008 48.7 34.1008 52.3 34.1008C55.9 34.1008 59 36.8008 59.5 40.3008H61.8V34.7008C61.8 31.7008 59.3 29.2008 56.3 29.2008H49.9C49.5 29.2008 49.1 29.0008 48.9 28.6008C47.4 25.5008 42.5 17.6008 38 17.6008H15.4C9.2 17.6008 5.5 23.1008 5.5 26.1008V34.0008V40.3008H5.4ZM2.2 32.3008C2.2 32.6008 2.4 32.8008 2.7 32.8008H3.2V27.1008H2.7C2.4 27.1008 2.2 27.3008 2.2 27.6008V32.3008Z" fill="white"/>
<path d="M28.1001 19.9023H35.5001C38.4001 19.9023 41.2001 21.3023 42.7001 23.7023L45.2001 27.5023C45.4001 27.8023 45.4001 28.3023 45.2001 28.6023C45.0001 29.0023 44.6001 29.2023 44.2001 29.2023H28.1001C27.5001 29.2023 27.0001 28.7023 27.0001 28.1023V21.0023C27.0001 20.4023 27.5001 19.9023 28.1001 19.9023ZM29.2001 27.0023H42.2001L40.8001 24.9023C39.7001 23.2023 37.7001 22.1023 35.5001 22.1023H29.2001V27.0023Z" fill="white"/>
<path d="M17.2001 19.9023H23.5001C24.1001 19.9023 24.6001 20.4023 24.6001 21.0023V28.1023C24.6001 28.7023 24.1001 29.2023 23.5001 29.2023H9.6001C9.0001 29.2023 8.5001 28.7023 8.5001 28.1023C8.4001 23.6023 12.3001 19.9023 17.2001 19.9023ZM22.3001 27.0023V22.1023H17.1001C13.9001 22.1023 11.2001 24.2023 10.7001 27.0023H22.3001Z" fill="white"/>
</svg>
