<svg width="76" height="76" viewBox="0 0 76 76" fill="none" xmlns="http://www.w3.org/2000/svg">
<g clip-path="url(#clip0_346_191)">
<path d="M13.9329 43.2229C10.3324 43.2229 7.40287 39.9757 7.40287 35.9851C7.40287 31.9933 10.3324 28.7461 13.9329 28.7461C17.5328 28.7461 20.4624 31.9933 20.4624 35.9851C20.4624 39.9757 17.5328 43.2229 13.9329 43.2229ZM13.9329 31.1211C11.6422 31.1211 9.77787 33.3031 9.77787 35.9851C9.77787 38.6671 11.6422 40.8479 13.9329 40.8479C16.2236 40.8479 18.0874 38.6665 18.0874 35.9851C18.0874 33.3025 16.2236 31.1211 13.9329 31.1211Z" fill="white"/>
<path d="M47.7618 48.195C44.5947 48.195 42.0178 45.3479 42.0178 41.8484C42.0178 38.3476 44.5947 35.5 47.7618 35.5C50.9283 35.5 53.5051 38.3482 53.5051 41.8484C53.5051 45.3479 50.9283 48.195 47.7618 48.195ZM47.7618 37.8744C45.9045 37.8744 44.3928 39.6574 44.3928 41.8484C44.3928 44.0381 45.9039 45.82 47.7618 45.82C49.619 45.82 51.1301 44.0375 51.1301 41.8484C51.1301 39.6574 49.619 37.8744 47.7618 37.8744Z" fill="white"/>
<path d="M29.4618 53.9978C26.4622 53.9978 24.0224 51.3052 24.0224 47.9956C24.0224 44.6848 26.4622 41.9922 29.4618 41.9922C32.4614 41.9922 34.9011 44.6848 34.9011 47.9956C34.9011 51.3052 32.4614 53.9978 29.4618 53.9978ZM29.4618 44.3672C27.772 44.3672 26.3974 45.9953 26.3974 47.9956C26.3974 49.9959 27.772 51.6228 29.4618 51.6228C31.1516 51.6228 32.5261 49.9959 32.5261 47.9956C32.5261 45.9953 31.1516 44.3672 29.4618 44.3672Z" fill="white"/>
<path d="M60.3623 59.8203C57.7433 59.8203 55.6123 57.5569 55.6123 54.7746C55.6123 51.9911 57.7433 49.7266 60.3623 49.7266C62.9813 49.7266 65.1123 51.9911 65.1123 54.7746C65.1123 57.5563 62.9813 59.8203 60.3623 59.8203ZM60.3623 52.1016C59.0525 52.1016 57.9873 53.3009 57.9873 54.7746C57.9873 56.2471 59.0525 57.4453 60.3623 57.4453C61.6721 57.4453 62.7373 56.2471 62.7373 54.7746C62.7373 53.3009 61.6715 52.1016 60.3623 52.1016Z" fill="white"/>
<path d="M0.292084 19.8443C0.301582 19.833 0.30159 19.8259 0.312271 19.814C0.529587 19.5777 5.79852 13.9721 20.1079 9.73866C32.6164 6.03841 41.7697 6.73607 42.1538 6.76695C42.3943 6.78654 42.6241 6.87916 42.8105 7.03295L75.5665 33.95C75.5701 33.953 75.5725 33.9565 75.576 33.9595C75.6336 34.0082 75.8242 34.2439 75.8883 34.3751C76.0148 34.6346 76 34.846 76 34.8674V41.7626C76 42.4181 75.4685 42.9501 74.8125 42.9501C72.6845 42.9501 70.9531 44.6815 70.9531 46.8095C70.9531 48.9375 72.6845 50.6676 74.8125 50.6688C75.468 50.6688 76 51.2002 76 51.8563V68.1174C76 68.4712 75.8414 68.8073 75.5683 69.0335C75.354 69.2099 75.0862 69.3049 74.8125 69.3049C74.7376 69.3049 74.6616 69.2977 74.5868 69.2829L48.0806 64.1523C47.4424 64.0294 47.022 63.4149 47.1378 62.7748C47.1384 62.7701 47.139 62.7653 47.1395 62.7611C47.1859 62.5023 47.209 62.2624 47.209 62.0308C47.209 59.7396 45.3446 57.8746 43.0528 57.8746C41.0898 57.8746 39.381 59.2651 38.9838 61.183C38.9832 61.1877 38.9808 61.1913 38.9802 61.1948C38.8496 61.8325 38.228 62.2458 37.5909 62.1235L0.961838 55.0335C0.403709 54.9254 0.000556946 54.4362 0.000556946 53.868V20.6179C-3.8147e-05 20.33 0.10743 20.0586 0.292084 19.8443ZM41.6016 9.11285C39.8109 9.02676 31.5115 8.84151 20.7818 12.0163C11.6096 14.7297 6.31865 18.0375 3.82906 19.9191L70.4401 32.8118L41.6016 9.11285ZM2.37437 52.8871L36.9936 59.5876C37.975 57.1615 40.3625 55.4984 43.0528 55.4984C46.6521 55.4984 49.581 58.4256 49.584 62.0237L73.625 66.6781V52.9304C70.753 52.3735 68.5781 49.8411 68.5781 46.8095C68.5781 43.7778 70.753 41.2454 73.625 40.6885V35.847L2.37496 22.0566V52.8871H2.37437Z" fill="white"/>
<path d="M28.5248 12.5312C32.4335 12.5312 35.4949 14.5678 35.4949 17.1684C35.4949 19.7679 32.4335 21.805 28.5248 21.805C24.6162 21.805 21.5548 19.7685 21.5548 17.1684C21.5548 14.5678 24.6162 12.5312 28.5248 12.5312ZM28.5248 19.4294C31.1552 19.4294 33.1199 18.2354 33.1199 17.1678C33.1199 16.1003 31.1546 14.9057 28.5248 14.9057C25.8951 14.9057 23.9298 16.0997 23.9298 17.1678C23.9298 18.2354 25.8945 19.4294 28.5248 19.4294Z" fill="white"/>
<path d="M46.9792 18.2422C49.9682 18.2422 52.3093 19.9362 52.3093 22.098C52.3093 24.2598 49.9682 25.9538 46.9792 25.9538C43.9903 25.9538 41.6491 24.2598 41.6491 22.098C41.6491 19.9362 43.9903 18.2422 46.9792 18.2422ZM46.9792 23.5782C48.783 23.5782 49.9343 22.7012 49.9343 22.0974C49.9343 21.4936 48.783 20.6166 46.9792 20.6166C45.1748 20.6166 44.0235 21.4936 44.0235 22.0974C44.0235 22.7012 45.1748 23.5782 46.9792 23.5782Z" fill="white"/>
</g>
<defs>
<clipPath id="clip0_346_191">
<rect width="76" height="76" fill="white" transform="matrix(-1 0 0 1 76 0)"/>
</clipPath>
</defs>
</svg>
