<svg width="55" height="55" viewBox="0 0 55 55" fill="none" xmlns="http://www.w3.org/2000/svg">
<path d="M27.5256 12.8943C27.2885 12.8943 27.0918 12.7021 27.0918 12.4647C27.0918 12.2273 27.2798 12.0352 27.5172 12.0352H27.5256C27.763 12.0352 27.9555 12.2273 27.9555 12.4647C27.9555 12.7021 27.763 12.8943 27.5256 12.8943Z" fill="white"/>
<path d="M27.5256 11.1756C27.2885 11.1756 27.0918 10.9834 27.0918 10.746C27.0918 10.5086 27.2798 10.3164 27.5172 10.3164H27.5256C27.763 10.3164 27.9555 10.5086 27.9555 10.746C27.9555 10.9834 27.763 11.1756 27.5256 11.1756Z" fill="white"/>
<path d="M27.5256 9.45682C27.2885 9.45682 27.0918 9.26464 27.0918 9.02724C27.0918 8.78973 27.2798 8.59766 27.5172 8.59766H27.5256C27.763 8.59766 27.9555 8.78973 27.9555 9.02724C27.9555 9.26464 27.763 9.45682 27.5256 9.45682Z" fill="white"/>
<path d="M42.966 54.1362C42.7286 54.1362 42.5364 53.944 42.5364 53.7065V21.9141C42.5364 21.6766 42.7286 21.4844 42.966 21.4844C43.2035 21.4844 43.3956 21.6766 43.3956 21.9141V53.7064C43.3956 53.944 43.2035 54.1362 42.966 54.1362Z" fill="white"/>
<path d="M54.1358 23.2032C53.9722 23.2032 53.816 23.1092 53.744 22.9502C52.1363 19.3883 47.6312 9.84669 46.1158 8.48652C44.2874 6.84576 36.8868 4.30287 36.8121 4.27719C36.5882 4.20039 36.4682 3.95632 36.5454 3.73181C36.6209 3.50698 36.8651 3.38871 37.0908 3.46412C37.4012 3.57068 44.7324 6.09047 46.6898 7.84703C48.6491 9.60575 54.2885 22.067 54.5277 22.5968C54.6249 22.8128 54.5286 23.0675 54.3129 23.165C54.2549 23.1911 54.1954 23.2032 54.1358 23.2032Z" fill="white"/>
<path d="M45.5436 27.4447C45.3858 27.4447 45.2331 27.3571 45.1585 27.2053C45.0535 26.9926 45.1408 26.735 45.3531 26.6301L53.9453 22.3877C54.1559 22.2845 54.4152 22.3684 54.5209 22.5828C54.6258 22.7954 54.5385 23.0531 54.3263 23.1579L45.7341 27.4003C45.6728 27.4304 45.6081 27.4447 45.5436 27.4447Z" fill="white"/>
<path d="M45.5437 27.4457C45.3867 27.4457 45.2358 27.3597 45.1603 27.21L42.5826 22.1083C42.4761 21.8965 42.5608 21.638 42.7723 21.531C42.982 21.4236 43.2422 21.5079 43.3496 21.7206L45.9273 26.8222C46.0337 27.0341 45.9491 27.2925 45.7376 27.3995C45.6754 27.4309 45.6091 27.4457 45.5437 27.4457Z" fill="white"/>
<path d="M42.1068 54.9958C41.8693 54.9958 41.6772 54.8036 41.6772 54.5662C41.6772 54.3287 41.8693 54.1366 42.1068 54.1366C42.3435 54.1366 42.5364 53.9436 42.5364 53.7069C42.5364 53.4694 42.7286 53.2773 42.966 53.2773C43.2035 53.2773 43.3957 53.4694 43.3957 53.7069C43.3957 54.4176 42.8175 54.9958 42.1068 54.9958Z" fill="white"/>
<path d="M12.0342 54.1362C11.7967 54.1362 11.6045 53.944 11.6045 53.7065V21.9141C11.6045 21.6766 11.7967 21.4844 12.0342 21.4844C12.2716 21.4844 12.4638 21.6766 12.4638 21.9141V53.7064C12.4638 53.944 12.2716 54.1362 12.0342 54.1362Z" fill="white"/>
<path d="M0.863839 23.2034C0.80508 23.2034 0.744709 23.1913 0.68756 23.1653C0.471105 23.068 0.37507 22.8133 0.472824 22.5972C0.711837 22.0674 6.35052 9.60609 8.31022 7.84738C10.2679 6.09071 17.5985 3.57092 17.9098 3.46446C18.1329 3.38819 18.3779 3.50721 18.4551 3.73216C18.5318 3.95667 18.412 4.20073 18.1874 4.27754C18.1132 4.3031 10.7121 6.84642 8.88417 8.48686C7.36877 9.84693 2.86371 19.3886 1.25561 22.9505C1.18396 23.1095 1.02787 23.2034 0.863839 23.2034Z" fill="white"/>
<path d="M9.45601 27.4454C9.3922 27.4454 9.32721 27.4311 9.26641 27.4009L0.674162 23.1585C0.461574 23.0536 0.37381 22.796 0.479191 22.5834C0.584035 22.371 0.842492 22.2829 1.05433 22.3883L9.64646 26.6307C9.85916 26.7356 9.94682 26.9932 9.84154 27.2059C9.76688 27.3578 9.61456 27.4454 9.45601 27.4454Z" fill="white"/>
<path d="M9.4561 27.4452C9.39111 27.4452 9.32483 27.4305 9.26274 27.399C9.05091 27.2921 8.96615 27.0337 9.07314 26.8218L11.6508 21.7202C11.7583 21.5088 12.0171 21.4236 12.2281 21.5306C12.44 21.6376 12.5247 21.896 12.4177 22.1079L9.84003 27.2094C9.76451 27.3588 9.61305 27.4452 9.4561 27.4452Z" fill="white"/>
<path d="M12.8933 54.9958C12.1826 54.9958 11.6045 54.4176 11.6045 53.7069C11.6045 53.4694 11.7967 53.2773 12.0342 53.2773C12.2716 53.2773 12.4638 53.4694 12.4638 53.7069C12.4638 53.9436 12.6564 54.1366 12.8933 54.1366C13.1308 54.1366 13.323 54.3287 13.323 54.5662C13.3229 54.8036 13.1308 54.9958 12.8933 54.9958Z" fill="white"/>
<path d="M42.1067 54.9959H12.8932C12.6558 54.9959 12.4636 54.8037 12.4636 54.5663C12.4636 54.3288 12.6558 54.1367 12.8932 54.1367H42.1067C42.3442 54.1367 42.5363 54.3288 42.5363 54.5663C42.5363 54.8037 42.3442 54.9959 42.1067 54.9959Z" fill="white"/>
<path d="M41.2475 53.2772H13.7524C13.5149 53.2772 13.3228 53.0851 13.3228 52.8477C13.3228 52.6101 13.5149 52.418 13.7524 52.418H41.2475C41.4849 52.418 41.6771 52.6101 41.6771 52.8477C41.6771 53.0851 41.4849 53.2772 41.2475 53.2772Z" fill="white"/>
<path d="M36.0922 4.3004C35.8993 4.3004 35.7239 4.17031 35.6752 3.9748L34.816 0.537947C34.759 0.308065 34.8982 0.0747443 35.129 0.0172736C35.3548 -0.0414862 35.5929 0.0990216 35.6501 0.329871L36.5094 3.76673C36.5664 3.99661 36.4271 4.22993 36.1963 4.2874C36.162 4.2961 36.1267 4.3004 36.0922 4.3004Z" fill="white"/>
<path d="M33.5146 0.863174H21.4856C21.2482 0.863174 21.0559 0.670996 21.0559 0.433594C21.0559 0.196084 21.2481 0.00390625 21.4856 0.00390625H33.5146C33.752 0.00390625 33.9442 0.196084 33.9442 0.433594C33.9442 0.670996 33.752 0.863174 33.5146 0.863174Z" fill="white"/>
<path d="M27.9295 6.01835C27.7949 6.01835 27.6623 5.95497 27.5784 5.8367C27.4417 5.64248 27.4877 5.37479 27.6815 5.23761L34.9853 0.0822179C35.1766 -0.0541005 35.4477 -0.00790902 35.5835 0.18545C35.7202 0.379777 35.6742 0.647364 35.4804 0.784542L28.177 5.93983C28.1023 5.99268 28.0151 6.01835 27.9295 6.01835Z" fill="white"/>
<path d="M32.6552 8.77608C32.5813 8.77608 32.5067 8.75729 32.4388 8.71743L27.7131 5.96023C27.5079 5.84067 27.4392 5.5776 27.5587 5.37285C27.6783 5.16768 27.9421 5.09979 28.146 5.21849L32.8717 7.97568C33.0764 8.09524 33.1461 8.35832 33.0262 8.56307C32.9465 8.69971 32.8029 8.77608 32.6552 8.77608Z" fill="white"/>
<path d="M32.6553 8.77645C32.5638 8.77645 32.4716 8.74756 32.3935 8.68751C32.2056 8.54324 32.1703 8.2734 32.3147 8.08509L35.7515 3.60936C35.8968 3.42104 36.1668 3.38581 36.354 3.53051C36.542 3.67478 36.5772 3.94462 36.4328 4.13293L32.996 8.60866C32.9113 8.71855 32.7838 8.77645 32.6553 8.77645Z" fill="white"/>
<path d="M18.9083 4.30107C18.874 4.30107 18.8387 4.29688 18.8038 4.28807C18.5735 4.2306 18.4334 3.99728 18.4913 3.7674L19.3505 0.330543C19.4075 0.0998006 19.6413 -0.0428557 19.8712 0.0179451C20.1016 0.0754158 20.2417 0.308736 20.1838 0.538619L19.3245 3.97548C19.2758 4.17098 19.1009 4.30107 18.9083 4.30107Z" fill="white"/>
<path d="M27.0702 6.01823C26.9846 6.01823 26.8981 5.99266 26.8226 5.93981L19.5193 0.784423C19.3254 0.647246 19.2793 0.37955 19.416 0.185332C19.5528 -0.00759803 19.8209 -0.0542191 20.0151 0.0820992L27.3185 5.23749C27.5123 5.37467 27.5585 5.64236 27.4217 5.83658C27.3378 5.95485 27.2052 6.01823 27.0702 6.01823Z" fill="white"/>
<path d="M22.3452 8.77608C22.1975 8.77608 22.0537 8.69982 21.974 8.56307C21.8544 8.35832 21.9232 8.09524 22.1284 7.97568L26.8541 5.21849C27.0601 5.09936 27.3223 5.16854 27.4414 5.37285C27.561 5.5776 27.4923 5.84067 27.2871 5.96024L22.5614 8.71743C22.4934 8.75718 22.4187 8.77608 22.3452 8.77608Z" fill="white"/>
<path d="M22.345 8.77597C22.2158 8.77597 22.0883 8.71807 22.004 8.60818L18.567 4.13244C18.4223 3.94413 18.458 3.67429 18.6458 3.53002C18.8354 3.38532 19.1048 3.42217 19.2483 3.60887L22.6853 8.0846C22.83 8.27291 22.7944 8.54276 22.6065 8.68702C22.5284 8.74707 22.4361 8.77597 22.345 8.77597Z" fill="white"/>
<path d="M26.6409 14.6118C26.4034 14.6118 26.2112 14.4197 26.2112 14.1822V7.30849C26.2112 7.07098 26.4034 6.87891 26.6409 6.87891C26.8783 6.87891 27.0704 7.07098 27.0704 7.30849V14.1822C27.0704 14.4197 26.8783 14.6118 26.6409 14.6118Z" fill="white"/>
<path d="M28.3593 14.6131H26.6409C26.4034 14.6131 26.2112 14.421 26.2112 14.1835C26.2112 13.9461 26.4034 13.7539 26.6409 13.7539H28.3593C28.5967 13.7539 28.7889 13.9461 28.7889 14.1835C28.7889 14.421 28.5967 14.6131 28.3593 14.6131Z" fill="white"/>
<path d="M28.3591 14.6118C28.1216 14.6118 27.9294 14.4197 27.9294 14.1822V7.30849C27.9294 7.07098 28.1216 6.87891 28.3591 6.87891C28.5965 6.87891 28.7887 7.07098 28.7887 7.30849V14.1822C28.7887 14.4197 28.5965 14.6118 28.3591 14.6118Z" fill="white"/>
<path d="M37.8106 18.0504C37.5731 18.0504 37.3809 17.8582 37.3809 17.6207V15.4727H34.8032V17.6207C34.8032 17.8582 34.6112 18.0504 34.3737 18.0504C34.1363 18.0504 33.9441 17.8582 33.9441 17.6207V15.043C33.9441 14.8056 34.1363 14.6133 34.3737 14.6133H37.8106C38.048 14.6133 38.2402 14.8055 38.2402 15.043V17.6207C38.2402 17.8582 38.048 18.0504 37.8106 18.0504Z" fill="white"/>
<path d="M36.0921 19.7652C34.9073 19.7652 33.9441 18.8015 33.9441 17.6171C33.9441 17.3797 34.1363 17.1875 34.3737 17.1875C34.6112 17.1875 34.8032 17.3797 34.8032 17.6171C34.8032 18.3278 35.3815 18.9059 36.0921 18.9059C36.8028 18.9059 37.3809 18.3278 37.3809 17.6171C37.3809 17.3797 37.5731 17.1875 37.8106 17.1875C38.048 17.1875 38.2402 17.3797 38.2402 17.6171C38.2402 18.8014 37.277 19.7652 36.0921 19.7652Z" fill="white"/>
<path d="M36.9513 17.1874H35.2329C34.9954 17.1874 34.8032 16.9952 34.8032 16.7578C34.8032 16.5203 34.9954 16.3281 35.2329 16.3281H36.9513C37.1887 16.3281 37.3809 16.5203 37.3809 16.7578C37.3809 16.9952 37.1887 17.1874 36.9513 17.1874Z" fill="white"/>
<path d="M36.0922 19.7654C35.8548 19.7654 35.6626 19.5732 35.6626 19.3357V18.4766C35.6626 18.2391 35.8548 18.0469 36.0922 18.0469C36.3297 18.0469 36.5219 18.2391 36.5219 18.4766V19.3357C36.5219 19.5732 36.3297 19.7654 36.0922 19.7654Z" fill="white"/>
<path d="M44.7827 25.9021C44.6249 25.9021 44.4721 25.8144 44.3975 25.6625C44.2925 25.45 44.3798 25.1923 44.5921 25.0874L53.1843 20.845C53.3949 20.741 53.655 20.8262 53.7598 21.0401C53.8648 21.2528 53.7774 21.5104 53.5652 21.6152L44.973 25.8576C44.9118 25.8878 44.8471 25.9021 44.7827 25.9021Z" fill="white"/>
<path d="M10.2163 25.9059C10.1525 25.9059 10.0875 25.8916 10.0266 25.8614L1.43447 21.619C1.22178 21.5142 1.13412 21.2566 1.2394 21.0439C1.34392 20.8316 1.60323 20.7444 1.81453 20.8488L10.4068 25.0912C10.6195 25.1962 10.7071 25.4538 10.6019 25.6664C10.5272 25.8182 10.3749 25.9059 10.2163 25.9059Z" fill="white"/>
</svg>
