<svg width="60" height="60" viewBox="0 0 60 60" fill="none" xmlns="http://www.w3.org/2000/svg">
<path d="M18.6472 21.543V53.439" stroke="white" stroke-width="2.5" stroke-miterlimit="10"/>
<path d="M18.6472 6.67969V16.9107" stroke="white" stroke-width="2.5" stroke-miterlimit="10"/>
<path d="M44.6737 53.457H11.2756" stroke="white" stroke-width="2.5" stroke-miterlimit="10"/>
<path d="M13.0058 15.8281H5.21851V22.6349H13.0058V15.8281Z" stroke="white" stroke-width="2.5" stroke-miterlimit="10"/>
<path d="M13.1626 21.4944H54.7807L50.6619 17.0156H13.1626" stroke="white" stroke-width="2.5" stroke-miterlimit="10" stroke-linejoin="round"/>
<path d="M24.9678 16.8923L18.708 6.66406" stroke="white" stroke-width="2.5" stroke-miterlimit="10" stroke-linecap="round"/>
<path d="M45.4701 16.8905L18.6472 6.54297L6.71924 15.6249" stroke="white" stroke-width="2.5" stroke-miterlimit="10" stroke-linecap="round" stroke-linejoin="round"/>
<path d="M18.8801 23.4414L24.7637 28.5188" stroke="white" stroke-width="2.5" stroke-miterlimit="10" stroke-linecap="round"/>
<path d="M18.8801 34.0526L24.7637 28.9766" stroke="white" stroke-width="2.5" stroke-miterlimit="10" stroke-linecap="round"/>
<path d="M40.509 24.5156L42.0351 33.9977" stroke="white" stroke-width="2.5" stroke-miterlimit="10"/>
<path d="M46.9954 24.5156L45.4692 33.9977" stroke="white" stroke-width="2.5" stroke-miterlimit="10"/>
<path d="M43.68 38.5898V40.9489C44.9506 40.9489 45.9812 41.9788 45.9812 43.2501C45.9812 44.5221 44.9506 45.5527 43.68 45.5527C42.4087 45.5527 41.3774 44.5221 41.3774 43.2501" stroke="white" stroke-width="2.5" stroke-miterlimit="10" stroke-linecap="round"/>
<path d="M45.6882 38.4998H41.7543L41.0894 34.0195H46.4152L45.6882 38.4998Z" stroke="white" stroke-width="2.5" stroke-miterlimit="10" stroke-linecap="round" stroke-linejoin="round"/>
<path d="M24.9812 21.543V53.439" stroke="white" stroke-width="2.5" stroke-miterlimit="10"/>
<path d="M18.8801 34.8359L24.7637 39.9133" stroke="white" stroke-width="2.5" stroke-miterlimit="10" stroke-linecap="round"/>
<path d="M18.8801 45.4453L24.7637 40.3672" stroke="white" stroke-width="2.5" stroke-miterlimit="10" stroke-linecap="round"/>
<path d="M18.8801 46.293L24.7637 51.3704" stroke="white" stroke-width="2.5" stroke-miterlimit="10" stroke-linecap="round"/>
</svg>
