<svg width="62" height="39" viewBox="0 0 62 39" fill="none" xmlns="http://www.w3.org/2000/svg">
<path d="M60.7083 10.4558H56.8333V6.53485C56.8333 6.18822 56.6972 5.85579 56.455 5.61068C56.2128 5.36558 55.8842 5.22788 55.5417 5.22788H51.6667V1.30697C51.6667 0.96034 51.5306 0.627907 51.2883 0.382803C51.0461 0.137698 50.7176 0 50.375 0L1.29167 0C0.949095 0 0.620555 0.137698 0.37832 0.382803C0.136086 0.627907 0 0.96034 0 1.30697L0 27.2111C0 27.5578 0.136086 27.8902 0.37832 28.1353C0.620555 28.3804 0.949095 28.5181 1.29167 28.5181H5.16667V32.439C5.16667 32.7856 5.30275 33.1181 5.54499 33.3632C5.78722 33.6083 6.11576 33.746 6.45833 33.746H10.3333V37.6669C10.3333 38.0135 10.4694 38.346 10.7117 38.5911C10.9539 38.8362 11.2824 38.9739 11.625 38.9739H60.7083C61.0509 38.9739 61.3794 38.8362 61.6217 38.5911C61.8639 38.346 62 38.0135 62 37.6669V11.7627C62 11.4161 61.8639 11.0837 61.6217 10.8386C61.3794 10.5935 61.0509 10.4558 60.7083 10.4558ZM40.8167 25.9042H10.85C10.5646 23.7875 9.60176 21.8237 8.10888 20.3131C6.61599 18.8026 4.6752 17.8284 2.58333 17.5395V10.9786C4.6752 10.6897 6.61599 9.71552 8.10888 8.20495C9.60176 6.69438 10.5646 4.7306 10.85 2.61394H40.8167C41.1021 4.7306 42.0649 6.69438 43.5578 8.20495C45.0507 9.71552 46.9915 10.6897 49.0833 10.9786V17.5395C46.9915 17.8284 45.0507 18.8026 43.5578 20.3131C42.0649 21.8237 41.1021 23.7875 40.8167 25.9042ZM49.0833 20.1535V25.9042H43.3742C43.6419 24.475 44.3304 23.1611 45.3492 22.1348C46.368 21.1086 47.6697 20.4179 49.0833 20.1535ZM49.0833 2.61394V8.39075C47.6662 8.12461 46.362 7.4301 45.3428 6.39882C44.3236 5.36754 43.6372 4.04791 43.3742 2.61394H49.0833ZM2.58333 2.61394H8.2925C8.02947 4.04791 7.3431 5.36754 6.32389 6.39882C5.30469 7.4301 4.00051 8.12461 2.58333 8.39075V2.61394ZM2.58333 20.1535C3.99699 20.4179 5.29862 21.1086 6.31747 22.1348C7.33631 23.1611 8.02476 24.475 8.2925 25.9042H2.58333V20.1535ZM7.75 28.5442H50.375C50.7176 28.5442 51.0461 28.4065 51.2883 28.1614C51.5306 27.9163 51.6667 27.5839 51.6667 27.2373V7.84182H54.25V31.132H7.75V28.5442ZM59.4167 36.3861H12.9167V33.7721H55.5417C55.8842 33.7721 56.2128 33.6344 56.455 33.3893C56.6972 33.1442 56.8333 32.8118 56.8333 32.4651V13.0697H59.4167V36.3861Z" fill="white"/>
<path d="M25.8334 5.38281C24.1014 5.38281 22.4082 5.90252 20.968 6.8762C19.5279 7.84989 18.4054 9.23383 17.7426 10.853C17.0797 12.4722 16.9063 14.2539 17.2442 15.9728C17.5821 17.6917 18.4162 19.2707 19.6409 20.5099C20.8657 21.7492 22.4261 22.5932 24.1249 22.9351C25.8237 23.277 27.5846 23.1015 29.1848 22.4308C30.785 21.7601 32.1527 20.6244 33.115 19.1671C34.0773 17.7099 34.5909 15.9967 34.5909 14.2441C34.5841 11.896 33.6593 9.64615 32.0184 7.98583C30.3775 6.32552 28.154 5.38971 25.8334 5.38281ZM25.8334 20.4914C24.6123 20.4914 23.4186 20.125 22.4032 19.4385C21.3879 18.7521 20.5966 17.7764 20.1292 16.6348C19.6619 15.4933 19.5397 14.2371 19.7779 13.0253C20.0161 11.8134 20.6042 10.7003 21.4676 9.82655C22.3311 8.95285 23.4312 8.35785 24.6289 8.11679C25.8266 7.87574 27.068 7.99946 28.1962 8.4723C29.3244 8.94515 30.2886 9.74588 30.9671 10.7732C31.6455 11.8006 32.0076 13.0085 32.0076 14.2441C32.011 15.0667 31.8538 15.8819 31.5451 16.6428C31.2363 17.4038 30.7821 18.0956 30.2084 18.6785C29.6347 19.2614 28.9529 19.7239 28.2022 20.0395C27.4514 20.3551 26.6464 20.5175 25.8334 20.5175V20.4914Z" fill="white"/>
</svg>
 