<svg width="61" height="61" viewBox="0 0 61 61" fill="none" xmlns="http://www.w3.org/2000/svg">
<path d="M58.1406 4.76562H2.85938C1.28019 4.76562 0 6.04581 0 7.625V42.8906C0 44.4698 1.28019 45.75 2.85938 45.75H58.1406C59.7198 45.75 61 44.4698 61 42.8906V7.625C61 6.04581 59.7198 4.76562 58.1406 4.76562Z" fill="white"/>
<path d="M39.0781 45.75H21.9219V50.5156H39.0781V45.75Z" fill="#849299"/>
<path d="M57.1875 8.57812H3.8125V39.0781H57.1875V8.57812Z" fill="#D8E4E0" fill-opacity="0.58"/>
<path d="M50.5156 54.3281H10.4844C10.2316 54.3281 9.98916 54.2277 9.81041 54.049C9.63167 53.8702 9.53125 53.6278 9.53125 53.375C9.53125 52.6166 9.8325 51.8894 10.3687 51.3531C10.905 50.8169 11.6323 50.5156 12.3906 50.5156H48.6094C49.3677 50.5156 50.095 50.8169 50.6313 51.3531C51.1675 51.8894 51.4688 52.6166 51.4688 53.375C51.4688 53.6278 51.3683 53.8702 51.1896 54.049C51.0108 54.2277 50.7684 54.3281 50.5156 54.3281Z" fill="white"/>
<path d="M55.2812 44.3203C56.334 44.3203 57.1875 43.4669 57.1875 42.4141C57.1875 41.3613 56.334 40.5078 55.2812 40.5078C54.2285 40.5078 53.375 41.3613 53.375 42.4141C53.375 43.4669 54.2285 44.3203 55.2812 44.3203Z" fill="#0E0E28"/>
<path d="M24.7813 17.5503V30.2354C24.7814 30.427 24.833 30.6151 24.9307 30.78C25.0284 30.9448 25.1685 31.0805 25.3365 31.1727C25.5045 31.2649 25.6942 31.3104 25.8857 31.3042C26.0772 31.2981 26.2636 31.2407 26.4254 31.138L37.1585 24.3079C37.3155 24.208 37.4438 24.0688 37.5306 23.9041C37.6173 23.7395 37.6597 23.555 37.6535 23.369C37.6472 23.183 37.5925 23.0018 37.4949 22.8434C37.3972 22.6849 37.2599 22.5547 37.0966 22.4655L26.3634 16.6114C26.2005 16.5224 26.0173 16.4773 25.8317 16.4806C25.6461 16.4839 25.4646 16.5355 25.3049 16.6302C25.1453 16.7249 25.0131 16.8596 24.9213 17.0209C24.8294 17.1822 24.7812 17.3646 24.7813 17.5503Z" fill="#0E0E28"/>
</svg>
