<svg width="46" height="78" viewBox="0 0 46 78" fill="none" xmlns="http://www.w3.org/2000/svg">
<g clip-path="url(#clip0_346_14)">
<path d="M9.39303 67.2145C8.47299 68.0305 7.53368 68.8237 6.5697 69.5883C6.74546 69.3798 6.94677 69.1224 7.17514 68.8267C10.4707 64.5672 8.62992 59.6481 8.72512 59.6106C8.80045 59.5784 10.9559 63.0658 9.39303 67.2145ZM1.21149 59.6505C1.27053 59.6704 2.96937 55.8342 6.86442 56.6866C11.2791 57.6537 12.1939 62.6385 10.8372 65.5052C10.6924 65.8074 10.5413 66.0713 10.3888 66.3196C11.2096 65.562 12.0112 64.7829 12.7953 63.985C13.3476 60.2396 10.919 56.2483 7.03674 55.8033C1.96878 55.2224 1.16546 59.6376 1.21149 59.6505ZM31.5272 34.2543C31.5272 34.2543 33.48 29.9855 32.5139 25.4415C31.8513 22.3195 29.9843 19.8796 28.8798 18.6571C28.8676 18.4212 28.8577 18.1525 28.8523 17.8498C28.8307 16.7709 28.8716 15.3162 28.9586 13.8579C29.1279 10.9408 29.4338 8.01255 29.2458 7.98453C29.0683 7.95755 28.4315 10.8332 28.0169 13.7638C27.8079 15.2284 27.666 16.7095 27.6193 17.8347C27.6001 18.2708 27.5954 18.6519 27.5966 18.9563C27.0852 20.5316 26.3835 23.505 27.0432 26.6092C28.0075 31.1551 31.5272 34.2543 31.5272 34.2543ZM27.4629 44.9801C27.4629 44.9801 29.6749 40.8401 28.9907 36.2434C28.4548 32.6473 26.3098 29.8444 25.4008 28.7923C25.3775 27.6766 25.3653 25.9894 25.4225 24.2847C25.4862 21.3617 25.7057 18.4394 25.5288 18.4136C25.3396 18.385 24.7855 21.2844 24.4786 24.2209C24.1365 27.1497 24.0915 30.1306 24.112 30.1375C24.1138 30.206 24.1347 30.2698 24.1704 30.3272C23.6222 31.9687 23.0664 34.4433 23.4575 37.0711C24.1416 41.6679 27.4629 44.9801 27.4629 44.9801ZM18.948 45.754C19.3486 50.3845 22.4602 53.8952 22.4602 53.8952C22.4602 53.8952 24.9221 49.9004 24.5222 45.2704C24.2012 41.5548 22.138 38.5657 21.3335 37.5278C21.4116 36.4459 21.5249 35.0268 21.6673 33.6049C21.9353 30.6925 22.3353 27.7906 22.1607 27.7538C21.9733 27.7133 21.2413 30.5714 20.7298 33.4744C20.1957 36.371 19.8717 39.3127 19.8787 39.3157C19.8741 39.3759 19.8891 39.4333 19.912 39.4895C19.3158 41.0836 18.7397 43.3281 18.948 45.754ZM13.3564 53.7407C13.0657 58.3783 15.6233 62.3134 15.6233 62.3134C15.6233 62.3134 18.6497 58.7296 18.9394 54.092C19.1419 50.8407 17.9492 47.9399 17.2154 46.4928C17.2761 45.3852 17.3836 43.8275 17.5535 42.2621C17.8325 39.3521 18.2915 36.4589 18.1204 36.418C17.9318 36.3729 17.1401 39.2197 16.617 42.127C16.3064 43.7328 16.0899 45.359 15.9608 46.4918C15.0472 47.8632 13.5561 50.5527 13.3564 53.7407ZM0.12153 77.4304C0.473493 78.079 1.46781 78.2863 2.93723 77.4486C3.90524 76.8965 7.26556 74.4577 7.94572 73.9501C14.5888 70.8837 21.9488 73.4496 21.9984 73.3307C22.044 73.2294 17.5019 70.3439 10.9802 71.5481C11.4461 71.1581 11.9242 70.7456 12.4123 70.3129C21.8781 66.1612 30.3449 71.9111 30.418 71.8075C30.4764 71.7326 24.2105 65.8328 14.9011 67.9936C15.9614 66.9556 17.0403 65.8288 18.119 64.6222C19.7922 64.7165 22.7551 64.6299 25.521 63.2513C28.4418 61.7953 30.3537 59.2946 31.2324 57.9375C31.2826 57.8983 31.3316 57.8614 31.3842 57.8211C32.2646 57.1391 33.4059 56.1943 34.4958 55.1985C36.6868 53.2168 38.6852 51.0555 38.5592 50.9239C38.4296 50.7875 36.2059 52.6995 33.89 54.4697C32.7096 55.3946 31.4953 56.2493 30.5903 56.8641C28.9948 56.7599 26.0541 56.8125 23.2735 58.118C23.7552 57.4319 24.2309 56.7364 24.6951 56.0251C26.2294 55.9291 29.4981 55.4895 32.2939 53.5296C34.7424 51.812 36.2217 49.3555 36.9674 47.8224C37.0638 47.7159 37.1636 47.6041 37.2692 47.484C38.0095 46.6463 38.9442 45.4937 39.8222 44.3041C41.5952 41.9354 43.0949 39.3819 42.9258 39.2753C42.7815 39.1847 41.0226 41.5233 39.0862 43.7086C38.1999 44.7214 37.2962 45.6967 36.5583 46.4449C34.9774 46.5579 31.8108 47.0232 29.0886 48.9323C28.9158 49.0536 28.7523 49.1823 28.5882 49.311C29.1043 48.3077 29.5965 47.2961 30.0641 46.2775C31.4126 46.0158 34.846 45.136 37.4918 42.6199C39.2671 40.9305 40.3232 38.8469 40.9292 37.2528C40.9513 37.234 40.9788 37.223 40.9957 37.1978C40.9957 37.1978 41.4242 36.5737 41.9835 35.6043C42.5463 34.6366 43.2363 33.3218 43.8604 31.9799C45.1284 29.3035 46.0812 26.4994 45.8991 26.4297C45.7362 26.3665 44.484 29.0161 43.021 31.5426C42.3087 32.7931 41.5592 34.0154 40.9619 34.9134C39.5462 35.1996 36.2186 36.0982 33.6411 38.5494C33.3551 38.8222 33.0941 39.1073 32.8442 39.3964C33.0638 38.7688 33.2773 38.1419 33.477 37.5207C33.6108 37.1086 33.7362 36.6989 33.8611 36.2902C34.5786 36.0694 38.5199 34.7412 41.1044 31.4196C42.9533 29.0435 43.6451 26.2398 43.9054 24.5586C43.9282 24.4936 43.9504 24.4322 43.9743 24.3643C44.3474 23.3035 44.766 21.8734 45.1029 20.4291C45.7906 17.5408 46.135 14.6019 45.9518 14.5715C45.7708 14.5387 45.0988 17.4008 44.1916 20.1739C43.815 21.3436 43.4006 22.4934 43.0275 23.423C41.526 24.0136 38.701 25.3905 36.6939 27.9687C36.2525 28.5371 35.8835 29.1289 35.5635 29.7255C35.8006 28.6191 36.0043 27.5513 36.1788 26.5286C37.1328 25.2695 38.883 22.5602 39.245 19.2326C39.6116 15.8496 38.4383 12.779 37.7832 11.374C37.7599 10.1125 37.7009 8.54652 37.5655 6.98463C37.2951 3.44708 36.6173 -0.0297805 36.4347 0.000192404C36.2519 0.027168 36.5946 3.52785 36.6203 7.03034C36.6495 8.66716 36.6139 10.2957 36.5673 11.572C35.5888 12.919 34.0236 15.5001 33.6833 18.6239C33.3207 21.9595 34.4538 24.9873 35.1141 26.4192C26.6495 59.4221 8.14943 70.5332 1.55838 75.0724C0.174137 75.9259 -0.233871 76.776 0.12153 77.4304Z" fill="white"/>
</g>
<defs>
<clipPath id="clip0_346_14">
<rect width="46" height="78" fill="white"/>
</clipPath>
</defs>
</svg>
